<svg xmlns="http://www.w3.org/2000/svg" viewBox="0 0 64 64" fill="none">
  <!-- Mão esquerda -->
  <path d="M16 48c-4-6-6-14-5-22 1-8 5-14 11-18 2 6 2 13 0 19s-4 11-6 15v4z" fill="url(#il)"/>
  <!-- Mão direita -->
  <path d="M48 48c4-6 6-14 5-22-1-8-5-14-11-18-2 6-2 13 0 19s4 11 6 15v4z" fill="url(#ir)"/>
  <!-- Pessoa central -->
  <circle cx="32" cy="14" r="6" fill="#1A3A5C"/>
  <path d="M25 24c0-2 3-5 7-5s7 3 7 5c0 6-3 16-4 22 0 2-1 3-3 3s-3-1-3-3c-1-6-4-16-4-22z" fill="#1A3A5C"/>
  <!-- Check -->
  <path d="M28 34l3 4 5-7" stroke="#4CAF50" stroke-width="2" stroke-linecap="round" stroke-linejoin="round"/>
  <!-- Pessoas laterais -->
  <circle cx="19" cy="19" r="3.5" fill="#4CAF50"/>
  <path d="M16 25c0-1 1.5-2.5 3-2.5s3 1.5 3 2.5c0 3-1 8-1.5 11 0 1-.5 1.5-1.5 1.5s-1.5-.5-1.5-1.5C17 33 16 28 16 25z" fill="#4CAF50"/>
  <circle cx="45" cy="19" r="3.5" fill="#4CAF50"/>
  <path d="M42 25c0-1 1.5-2.5 3-2.5s3 1.5 3 2.5c0 3-1 8-1.5 11 0 1-.5 1.5-1.5 1.5s-1.5-.5-1.5-1.5C43 33 42 28 42 25z" fill="#4CAF50"/>
  <defs>
    <linearGradient id="il" x1="11" y1="48" x2="22" y2="8" gradientUnits="userSpaceOnUse">
      <stop stop-color="#4CAF50"/><stop offset="1" stop-color="#81C784"/>
    </linearGradient>
    <linearGradient id="ir" x1="53" y1="48" x2="42" y2="8" gradientUnits="userSpaceOnUse">
      <stop stop-color="#1A3A5C"/><stop offset="1" stop-color="#2C5F8A"/>
    </linearGradient>
  </defs>
</svg>
